<svg xmlns="http://www.w3.org/2000/svg"  viewBox="0 0 32 32" width="128px" height="128px"><path d="M28.001,7.767l-3.375-3.375c-0.391-0.391-1.023-0.391-1.414,0s-0.391,1.023,0,1.414l0.073,0.073l-0.034,0.027	c0.436,0.587,0.414,1.409-0.119,1.942l-2.475,2.475l-0.707-0.707c-0.391-0.391-1.023-0.391-1.414,0s-0.391,1.023,0,1.414	l0.707,0.707l-9.546,9.546c-0.586,0.586-1.536,0.586-2.121,0c-0.586-0.586-0.586-1.535,0-2.121l1.558-1.558l2.662-2.662	l-0.001,0.001l8.966-8.966c0.391-0.391,0.391-1.023,0-1.414s-1.023-0.391-1.414,0L4.798,19.111	c-0.154,0.154-0.255,0.355-0.284,0.572l-1.111,8.183c-0.042,0.31,0.063,0.621,0.284,0.842C3.875,28.896,4.13,29,4.394,29	c0.045,0,0.09-0.003,0.135-0.009l8.183-1.112c0.217-0.029,0.418-0.13,0.572-0.284l14.718-14.718	C29.41,11.468,29.41,9.176,28.001,7.767z"/></svg>